PathFileType	4	(X/Y/Z)	RBDS08static.trc
DataRate	CameraRate	NumFrames	NumMarkers	Units	OrigDataRate	OrigDataStartFrame	OrigNumFrames
150.000000	150.000000	4	48	mm	150.000000	18	150
Frame#	Time	L.Ankle			L.Ankle.Medial			L.ASIS			L.GTR			L.Heel.Bottom			L.Heel.Lateral			L.Heel.Top			L.HF			L.Iliac.Crest			L.Knee			L.Knee.Medial			L.MT1			L.MT2			L.MT5			L.PSIS			L.Shank.Bottom.Lateral			L.Shank.Bottom.Medial			L.Shank.Top.Lateral			L.Shank.Top.Medial			L.Thigh.Bottom.Lateral			L.Thigh.Bottom.Medial			L.Thigh.Top.Lateral			L.Thigh.Top.Medial			L.TT			R.Ankle			R.Ankle.Medial			R.ASIS			R.GTR			R.Heel.Bottom			R.Heel.Lateral			R.Heel.Top			R.HF			R.Iliac.Crest			R.Knee			R.Knee.Medial			R.MT1			R.MT2			R.MT5			R.PSIS			R.Shank.Bottom.Lateral			R.Shank.Bottom.Medial			R.Shank.Top.Lateral			R.Shank.Top.Medial			R.Thigh.Bottom.Lateral			R.Thigh.Bottom.Medial			R.Thigh.Top.Lateral			R.Thigh.Top.Medial			R.TT			
		X1	Y1	Z1	X2	Y2	Z2	X3	Y3	Z3	X4	Y4	Z4	X5	Y5	Z5	X6	Y6	Z6	X7	Y7	Z7	X8	Y8	Z8	X9	Y9	Z9	X10	Y10	Z10	X11	Y11	Z11	X12	Y12	Z12	X13	Y13	Z13	X14	Y14	Z14	X15	Y15	Z15	X16	Y16	Z16	X17	Y17	Z17	X18	Y18	Z18	X19	Y19	Z19	X20	Y20	Z20	X21	Y21	Z21	X22	Y22	Z22	X23	Y23	Z23	X24	Y24	Z24	X25	Y25	Z25	X26	Y26	Z26	X27	Y27	Z27	X28	Y28	Z28	X29	Y29	Z29	X30	Y30	Z30	X31	Y31	Z31	X32	Y32	Z32	X33	Y33	Z33	X34	Y34	Z34	X35	Y35	Z35	X36	Y36	Z36	X37	Y37	Z37	X38	Y38	Z38	X39	Y39	Z39	X40	Y40	Z40	X41	Y41	Z41	X42	Y42	Z42	X43	Y43	Z43	X44	Y44	Z44	X45	Y45	Z45	X46	Y46	Z46	X47	Y47	Z47	X48	Y48	Z48	

19	0.12	756.6009521484375	103.2341842651367	1046.82666015625	774.1390991210938	108.351318359375	1131.26220703125	901.6222534179688	1042.403198242188	1109.503295898438	832.2708129882813	938.862060546875	1048.607421875	670.9835205078125	44.75852584838867	1081.063598632813	702.067626953125	63.09367370605469	1036.85302734375	685.2864990234375	94.63291168212891	1085.974975585938	786.9434204101563	480.4969787597656	1030.93505859375	828.5147705078125	1104.786865234375	1080.404052734375	791.7363891601563	539.9212036132813	1037.765258789063	780.637451171875	522.5198974609375	1151.031127929688	899.621337890625	62.06163787841797	1116.453979492188	903.2186279296875	67.05471801757813	1075.262817382813	861.0470581054688	50.42216873168945	1009.355285644531	731.5725708007813	1059.615966796875	1179.927612304688	744.9669799804688	176.3050384521484	1038.048706054688	706.950927734375	177.1688537597656	1073.398559570313	739.9727172851563	256.2423400878906	1026.167358398438	704.5817260742188	261.5878601074219	1066.063354492188	801.4579467773438	674.6136474609375	1021.706665039063	742.4935913085938	669.4702758789063	1065.027221679688	794.6205444335938	785.1173095703125	1028.595947265625	741.9841918945313	779.5429077148438	1075.112915039063	836.2362670898438	453.13134765625	1079.616455078125	737.0122680664063	108.3336181640625	1407.456420898438	762.6660766601563	114.9016494750977	1323.926147460938	907.9425659179688	1038.859008789063	1345.172729492188	834.0817260742188	944.573486328125	1403.426391601563	657.7505493164063	43.8143196105957	1371.1298828125	685.633544921875	60.96660232543945	1412.825073242188	668.9375	93.09294891357422	1369.069091796875	771.0596923828125	487.5042419433594	1433.129760742188	839.7564086914063	1097.831420898438	1376.98193359375	775.3493041992188	543.3355712890625	1425.939331054688	764.721435546875	521.861083984375	1313.03271484375	884.1290893554688	60.83607864379883	1330.75	890.7760620117188	68.88909912109375	1376.724731445313	852.44287109375	56.70206451416016	1436.8115234375	734.4190063476563	1060.935668945313	1283.011596679688	716.5780029296875	192.2861633300781	1418.37646484375	690.208251953125	196.2372436523438	1369.45703125	707.677734375	272.7740173339844	1426.393310546875	686.3658447265625	275.8117980957031	1376.8251953125	791.0977172851563	652.6998291015625	1435.421020507813	731.6713256835938	654.4518432617188	1391.718383789063	793.4071044921875	763.2274169921875	1433.104370117188	738.4068603515625	764.3463134765625	1391.005249023438	818.9725341796875	461.0893859863281	1385.604858398438	
20	0.1266666666666667	756.6117553710938	103.2293167114258	1046.834350585938	774.12841796875	108.3572769165039	1131.262817382813	901.63427734375	1042.399536132813	1109.524047851563	832.283935546875	938.8540649414063	1048.626953125	670.978271484375	44.76636123657227	1081.071411132813	702.079833984375	63.09494781494141	1036.85791015625	685.28662109375	94.63591766357422	1085.978881835938	786.9520874023438	480.4969482421875	1030.950927734375	828.5053100585938	1104.77880859375	1080.4150390625	791.7548828125	539.9276123046875	1037.775756835938	780.623291015625	522.5184326171875	1151.039794921875	899.6312866210938	62.05307388305664	1116.456420898438	903.229248046875	67.05104827880859	1075.261962890625	861.0517578125	50.4150276184082	1009.360168457031	731.565185546875	1059.605346679688	1179.948974609375	744.973876953125	176.3082122802734	1038.056518554688	706.9541625976563	177.1661987304688	1073.404418945313	739.9835205078125	256.2534790039063	1026.185791015625	704.585205078125	261.587158203125	1066.0693359375	801.4617919921875	674.6099853515625	1021.728576660156	742.4921264648438	669.468017578125	1065.039428710938	794.62451171875	785.1303100585938	1028.605834960938	741.984619140625	779.54150390625	1075.125244140625	836.2335205078125	453.1367797851563	1079.628173828125	737.3270874023438	107.9483184814453	1407.1923828125	762.6620483398438	114.9001388549805	1323.939331054688	907.943359375	1038.856323242188	1345.197387695313	834.0794067382813	944.5701293945313	1403.444702148438	657.7501831054688	43.80588150024414	1371.136352539063	685.6356201171875	60.95970916748047	1412.821411132813	668.9428100585938	93.08903503417969	1369.083129882813	771.0680541992188	487.4950866699219	1433.138671875	839.7433471679688	1097.838134765625	1377.02392578125	775.3543701171875	543.3211059570313	1425.93408203125	764.726806640625	521.8482666015625	1313.048583984375	884.4171142578125	60.815673828125	1330.50732421875	890.779541015625	68.89970397949219	1376.733642578125	852.432861328125	56.70658493041992	1436.824951171875	734.4126586914063	1060.928955078125	1283.03759765625	716.563720703125	192.2923431396484	1418.37255859375	690.2044677734375	196.2353820800781	1369.470092773438	707.6622924804688	272.7767639160156	1426.39990234375	686.3623046875	275.809814453125	1376.8271484375	791.1080322265625	652.6898803710938	1435.434814453125	731.67333984375	654.4518432617188	1391.738159179688	793.4078979492188	763.2199096679688	1433.125610351563	738.4099731445313	764.3339233398438	1391.020141601563	818.98046875	461.0884399414063	1385.616455078125	
21	0.1333333333333333	756.6146240234375	103.2260589599609	1046.836181640625	774.1292724609375	108.3566436767578	1131.274047851563	901.6210327148438	1042.39697265625	1109.52734375	832.26123046875	938.8528442382813	1048.627563476563	670.98046875	44.76302719116211	1081.069458007813	702.08154296875	63.08823394775391	1036.848022460938	685.2876586914063	94.63458251953125	1085.9794921875	786.9466552734375	480.4950561523438	1030.947998046875	828.4841918945313	1104.7734375	1080.424926757813	791.7527465820313	539.9246826171875	1037.787109375	780.6343994140625	522.5180053710938	1151.045166015625	899.6253662109375	62.0480842590332	1116.444580078125	903.210693359375	67.05819702148438	1075.248413085938	861.0422973632813	50.41105651855469	1009.352172851563	731.5569458007813	1059.60107421875	1179.964477539063	744.959716796875	176.3077850341797	1038.05078125	706.9461059570313	177.167724609375	1073.402465820313	739.9837036132813	256.2494201660156	1026.183715820313	704.5880737304688	261.5878295898438	1066.066528320313	801.4615478515625	674.608642578125	1021.727294921875	742.7341918945313	669.2286376953125	1065.131103515625	794.6229248046875	785.12060546875	1028.607177734375	741.9862060546875	779.5367431640625	1075.139404296875	836.2318725585938	453.1181945800781	1079.630493164063	737.0100708007813	108.3260726928711	1407.475708007813	762.6651000976563	114.8974990844727	1323.927490234375	907.9259643554688	1038.845458984375	1345.201416015625	834.0774536132813	944.5712280273438	1403.457397460938	657.7476806640625	43.79976654052734	1371.120727539063	685.6344604492188	60.9624137878418	1412.82958984375	668.9356689453125	93.08169555664063	1369.080810546875	771.07470703125	487.490478515625	1433.15283203125	839.742919921875	1097.829956054688	1377.037109375	775.3578491210938	543.32470703125	1425.947265625	764.7188720703125	521.8479614257813	1313.039306640625	884.4036865234375	60.80509567260742	1330.499267578125	890.7725219726563	68.88334655761719	1376.72021484375	852.4345703125	56.70071792602539	1436.813598632813	734.4072875976563	1060.923706054688	1283.063720703125	716.5656127929688	192.2814788818359	1418.376098632813	690.202392578125	196.22802734375	1369.454711914063	707.66796875	272.7709350585938	1426.397583007813	686.3599853515625	275.8048706054688	1376.83349609375	791.1073608398438	652.685791015625	1435.453491210938	731.6759033203125	654.448486328125	1391.747802734375	793.4046630859375	763.2182006835938	1433.1376953125	738.4109497070313	764.3399658203125	1391.039306640625	818.9740600585938	461.0775146484375	1385.60791015625	
22	0.14	756.606201171875	103.2371597290039	1046.828979492188	774.1331176757813	108.3548126220703	1131.265869140625	901.6123046875	1042.392822265625	1109.548706054688	832.2654418945313	938.855712890625	1048.640869140625	670.9823608398438	44.76469421386719	1081.067749023438	702.0708618164063	63.08784103393555	1036.851806640625	685.2880859375	94.63527679443359	1085.978271484375	786.9644165039063	480.4970092773438	1030.9541015625	828.4666748046875	1104.763549804688	1080.435913085938	791.76416015625	539.9252319335938	1037.791870117188	780.6228637695313	522.5215454101563	1151.06640625	899.611083984375	62.04785537719727	1116.457153320313	903.2117309570313	67.05610656738281	1075.255126953125	861.044677734375	50.40529632568359	1009.355163574219	731.5523071289063	1059.596069335938	1179.974853515625	744.9666137695313	176.3049926757813	1038.055786132813	706.944091796875	177.1738891601563	1073.406494140625	739.9733276367188	256.2489929199219	1026.189819335938	704.5894165039063	261.5841979980469	1066.069946289063	801.4608764648438	674.6129760742188	1021.733825683594	742.7443237304688	669.2234497070313	1065.136840820313	794.6262817382813	785.1200561523438	1028.62060546875	741.9932861328125	779.5340576171875	1075.142456054688	836.2391357421875	453.1196899414063	1079.6376953125	736.9957275390625	108.3329391479492	1407.463745117188	762.662353515625	114.8890686035156	1323.944946289063	907.9180908203125	1038.847778320313	1345.207153320313	834.073486328125	944.5607299804688	1403.464965820313	657.74169921875	43.79410552978516	1371.128295898438	685.6328125	60.95226669311523	1412.83154296875	668.9351806640625	93.08990478515625	1369.076171875	771.0695190429688	487.4959716796875	1433.156982421875	839.7312622070313	1097.82373046875	1377.058227539063	775.3509521484375	543.3135986328125	1425.961303710938	764.7227172851563	521.8509521484375	1313.047973632813	884.3933715820313	60.80620956420898	1330.496459960938	890.772705078125	68.89314270019531	1376.732788085938	852.4321899414063	56.69228744506836	1436.8173828125	734.3963623046875	1060.9189453125	1283.08447265625	716.5576782226563	192.2827758789063	1418.378295898438	690.1970825195313	196.2269439697266	1369.4619140625	707.6630859375	272.7656555175781	1426.39794921875	686.3635864257813	275.7975769042969	1376.8359375	791.1151123046875	652.6886596679688	1435.4619140625	731.680908203125	654.4407958984375	1391.759521484375	793.4110717773438	763.2090454101563	1433.15625	738.4149169921875	764.326171875	1391.059326171875	818.9733276367188	461.0745544433594	1385.627685546875	
